<svg xmlns="http://www.w3.org/2000/svg" viewBox="0 0 900 500" width="100%" height="100%">
  <defs>
    <style>
      @import url('https://fonts.googleapis.com/css2?family=Inter:wght@400;600;800&amp;family=JetBrains+Mono:wght@700&amp;display=swap');
      
      .bg { fill: #0B0E14; }
      
      .box {
        fill: #1A1E26;
        stroke-width: 2;
        rx: 8;
        filter: drop-shadow(0 4px 12px rgba(0,0,0,0.5));
        transition: all 0.3s ease;
      }
      .box:hover {
        filter: drop-shadow(0 0 15px currentColor);
        stroke-width: 3;
      }
      
      .title {
        font-family: 'JetBrains Mono', monospace;
        font-size: 14px;
        font-weight: 700;
        fill: #FFFFFF;
      }
      .desc {
        font-family: 'Inter', sans-serif;
        font-size: 11px;
        fill: #A0AABF;
      }
      
      .edge {
        fill: none;
        stroke-width: 2;
        stroke-dasharray: 4 4;
        animation: dash 20s linear infinite;
        opacity: 0.6;
      }
      @keyframes dash {
        to { stroke-dashoffset: -100; }
      }
      
      /* Colors */
      .cyan-stroke { stroke: #00E5FF; color: #00E5FF; }
      .purple-stroke { stroke: #B200FF; color: #B200FF; }
      .green-stroke { stroke: #00FF88; color: #00FF88; }
      .orange-stroke { stroke: #FF5E00; color: #FF5E00; }
      
      .cyan-text { fill: #00E5FF; }
      .purple-text { fill: #D480FF; }
      .green-text { fill: #80FFC4; }
      .orange-text { fill: #FFB380; }
    </style>

    <filter id="glow" x="-20%" y="-20%" width="140%" height="140%">
      <feGaussianBlur stdDeviation="8" result="blur" />
      <feComposite in="SourceGraphic" in2="blur" operator="over" />
    </filter>

    <marker id="arrow-cyan" viewBox="0 0 10 10" refX="9" refY="5" markerWidth="6" markerHeight="6" orient="auto-start-reverse">
      <path d="M 0 0 L 10 5 L 0 10 z" fill="#00E5FF" />
    </marker>
    <marker id="arrow-purple" viewBox="0 0 10 10" refX="9" refY="5" markerWidth="6" markerHeight="6" orient="auto-start-reverse">
      <path d="M 0 0 L 10 5 L 0 10 z" fill="#B200FF" />
    </marker>
  </defs>

  <!-- Background -->
  <rect class="bg" width="900" height="500" rx="16" />

  <!-- EDGES (Dependencies) -->
  <!-- CLI to Mid Row (Cyan edges) -->
  <path class="edge cyan-stroke" marker-end="url(#arrow-cyan)" d="M 450 130 C 450 180, 160 180, 160 215" />
  <path class="edge cyan-stroke" marker-end="url(#arrow-cyan)" d="M 450 130 C 450 180, 310 180, 310 215" />
  <path class="edge cyan-stroke" marker-end="url(#arrow-cyan)" d="M 450 130 C 450 180, 460 180, 460 215" />
  <path class="edge cyan-stroke" marker-end="url(#arrow-cyan)" d="M 450 130 C 450 180, 610 180, 610 215" />
  <path class="edge cyan-stroke" marker-end="url(#arrow-cyan)" d="M 450 130 C 450 180, 760 180, 760 215" />

  <!-- Lens/Sherlock to Core (Purple edges) -->
  <path class="edge purple-stroke" marker-end="url(#arrow-purple)" d="M 610 290 C 610 350, 610 320, 610 385" />
  <path class="edge purple-stroke" marker-end="url(#arrow-purple)" d="M 760 290 C 760 350, 760 320, 760 385" />

  <!-- NODES -->

  <!-- Top: CLI -->
  <g transform="translate(370, 70)">
    <rect class="box cyan-stroke" width="160" height="60" />
    <text class="title cyan-text" x="80" y="26" text-anchor="middle">txray-cli</text>
    <text class="desc" x="80" y="44" text-anchor="middle">Unified Interface</text>
  </g>

  <!-- Mid Row -->
  <!-- txray-net -->
  <g transform="translate(90, 220)">
    <rect class="box green-stroke" width="140" height="70" />
    <text class="title green-text" x="70" y="26" text-anchor="middle">txray-net</text>
    <text class="desc" x="70" y="44" text-anchor="middle">API Fetching</text>
    <text class="desc" x="70" y="58" text-anchor="middle">Mempool/Esplora</text>
  </g>

  <!-- txray-corpus -->
  <g transform="translate(240, 220)">
    <rect class="box green-stroke" width="140" height="70" />
    <text class="title green-text" x="70" y="26" text-anchor="middle">txray-corpus</text>
    <text class="desc" x="70" y="44" text-anchor="middle">Historical</text>
    <text class="desc" x="70" y="58" text-anchor="middle">Block Curations</text>
  </g>

  <!-- txray-smith -->
  <g transform="translate(390, 220)">
    <rect class="box green-stroke" width="140" height="70" />
    <text class="title green-text" x="70" y="26" text-anchor="middle">txray-smith</text>
    <text class="desc" x="70" y="44" text-anchor="middle">PSBT Builder</text>
    <text class="desc" x="70" y="58" text-anchor="middle">Coin Selection</text>
  </g>

  <!-- txray-lens -->
  <g transform="translate(540, 220)">
    <rect class="box purple-stroke" width="140" height="70" />
    <text class="title purple-text" x="70" y="26" text-anchor="middle">txray-lens</text>
    <text class="desc" x="70" y="44" text-anchor="middle">Analysis Engine</text>
    <text class="desc" x="70" y="58" text-anchor="middle">&amp; Explanations</text>
  </g>

  <!-- txray-sherlock -->
  <g transform="translate(690, 220)">
    <rect class="box purple-stroke" width="140" height="70" />
    <text class="title purple-text" x="70" y="26" text-anchor="middle">txray-sherlock</text>
    <text class="desc" x="70" y="44" text-anchor="middle">Chain Heuristics</text>
    <text class="desc" x="70" y="58" text-anchor="middle">CIOH/CoinJoin</text>
  </g>

  <!-- Bottom: Core -->
  <g transform="translate(540, 390)">
    <rect class="box orange-stroke" width="290" height="70" />
    <text class="title orange-text" x="145" y="26" text-anchor="middle">txray-core</text>
    <text class="desc" x="145" y="44" text-anchor="middle">Bitcoin Primitives</text>
    <text class="desc" x="145" y="58" text-anchor="middle">Zero-Dependency Byte Parsing</text>
  </g>


</svg>
