<svg xmlns="http://www.w3.org/2000/svg" viewBox="0 0 1280 360" width="1280" height="360" role="img" aria-label="txray - see the story behind every Bitcoin transaction">
  <defs>
    <pattern id="grid" width="32" height="32" patternUnits="userSpaceOnUse">
      <path d="M 32 0 L 0 0 0 32" fill="none" stroke="#1A1E26" stroke-width="1" stroke-dasharray="2 4" />
    </pattern>
    <linearGradient id="bg" x1="0" y1="0" x2="0" y2="1">
      <stop offset="0%" stop-color="#0B0E14" />
      <stop offset="100%" stop-color="#070910" />
    </linearGradient>
    <linearGradient id="accent" x1="0" y1="0" x2="1" y2="0">
      <stop offset="0%" stop-color="#F7931A" />
      <stop offset="100%" stop-color="#FF5E00" />
    </linearGradient>
    <filter id="glow" x="-50%" y="-50%" width="200%" height="200%">
      <feGaussianBlur stdDeviation="6" result="b" />
      <feMerge>
        <feMergeNode in="b" />
        <feMergeNode in="SourceGraphic" />
      </feMerge>
    </filter>
  </defs>

  <rect width="1280" height="360" fill="url(#bg)" />
  <rect width="1280" height="360" fill="url(#grid)" opacity="0.6" />

  <!-- Corner glyph: stylized X/diamond echoing txray-logo.svg -->
  <g transform="translate(96 130) scale(0.18)" fill="#F7931A" filter="url(#glow)">
    <path d="M 0 0 L 600 0 L 540 80 L 320 80 L 460 260 L 600 80 L 600 360 L 460 200 L 300 400 L 140 200 L 0 360 L 0 80 L 140 260 L 280 80 L 60 80 Z" />
  </g>

  <!-- Wordmark -->
  <text x="220" y="200"
        font-family="'JetBrains Mono','Fira Mono',ui-monospace,monospace"
        font-weight="800" font-size="128" letter-spacing="6"
        fill="#FAFAF9">TXRAY</text>

  <!-- Underline accent bar -->
  <rect x="222" y="216" width="540" height="6" fill="url(#accent)" rx="3" />

  <!-- Subtitle -->
  <text x="222" y="262"
        font-family="'Inter','Helvetica Neue',Arial,sans-serif"
        font-weight="500" font-size="22" fill="#A8A29E">
    See the story behind every Bitcoin transaction.
  </text>

  <!-- Tool chips -->
  <g font-family="'JetBrains Mono','Fira Mono',ui-monospace,monospace" font-weight="700" font-size="13" letter-spacing="2">
    <g transform="translate(222 296)">
      <rect width="86" height="26" rx="13" fill="none" stroke="#3B82F6" stroke-width="1.5" />
      <circle cx="14" cy="13" r="3" fill="#3B82F6" />
      <text x="26" y="17" fill="#3B82F6">LENS</text>
    </g>
    <g transform="translate(322 296)">
      <rect width="120" height="26" rx="13" fill="none" stroke="#D4A546" stroke-width="1.5" />
      <circle cx="14" cy="13" r="3" fill="#D4A546" />
      <text x="26" y="17" fill="#D4A546">SHERLOCK</text>
    </g>
    <g transform="translate(456 296)">
      <rect width="92" height="26" rx="13" fill="none" stroke="#10B981" stroke-width="1.5" />
      <circle cx="14" cy="13" r="3" fill="#10B981" />
      <text x="26" y="17" fill="#10B981">SMITH</text>
    </g>
  </g>

  <!-- Right-hand status strip -->
  <g transform="translate(900 110)" font-family="'JetBrains Mono','Fira Mono',ui-monospace,monospace" font-size="11" fill="#78716C">
    <text x="0" y="0">$ txray famous pizza</text>
    <text x="0" y="22" fill="#A8A29E">→ block 57043</text>
    <text x="0" y="40" fill="#A8A29E">→ 10,000 BTC for two pizzas</text>
    <text x="0" y="58" fill="#A8A29E">→ privacy score <tspan fill="#F7931A">2 / 10</tspan></text>
    <text x="0" y="80">$ txray fingerprint fixture.json</text>
    <text x="0" y="102" fill="#A8A29E">→ wallet match: <tspan fill="#00E5FF">Bitcoin Core 25+</tspan></text>
    <text x="0" y="124" fill="#A8A29E">→ change index: <tspan fill="#00FF88">vout 1</tspan></text>
  </g>

  <!-- Bottom rule -->
  <line x1="0" y1="332" x2="1280" y2="332" stroke="#1A1E26" stroke-width="1" />
  <text x="222" y="350"
        font-family="'JetBrains Mono','Fira Mono',ui-monospace,monospace"
        font-size="10" fill="#3F3F3F" letter-spacing="3">
    DECODE  ·  DETECT  ·  FORGE
  </text>
</svg>
